# xmcd
#
# Track frame offsets:
# 150
# 12660
# 22462
# 34504
# 47688
# 66377
# 80789
# 100858
# 111660
# 124350
# 134270
# 151116
# 158497
# 172451
# 197269
# 210737
# 228821
# 249910
# 262575
# 275101
#
# Disc length: 3873 seconds
#
#
# Revision: 3
# Processed by: cddbd v1.4PL0 Copyright (c) Steve Scherf et al.
# Submitted via: FreeRIP 2.11 
#
DISCID=1d0f1f14
DTITLE=Steve Hofmeyr - Toeka
DYEAR=2003
DGENRE=Afrikaans
TTITLE0=Jou Hart Is Weer Myne
TTITLE1=I Need Someone
TTITLE2=I Wanna Live
TTITLE3=Master Jack
TTITLE4=Pampoen
TTITLE5=You Asked Me To
TTITLE6=Liefling
TTITLE7=Hasie
TTITLE8=Sunday Girl
TTITLE9=Stille Rivierstroom
TTITLE10=Gypsy Girl
TTITLE11=Ou Kraalliedjie
TTITLE12=4x4
TTITLE13=So You Win Again
TTITLE14=Appel Van My Oog
TTITLE15=Cry To Me
TTITLE16=Heart
TTITLE17=She's A Woman
TTITLE18=Amper
TTITLE19=Amazing Grace
EXTD=
EXTT0=
EXTT1=
EXTT2=
EXTT3=
EXTT4=
EXTT5=
EXTT6=
EXTT7=
EXTT8=
EXTT9=
EXTT10=
EXTT11=
EXTT12=
EXTT13=
EXTT14=
EXTT15=
EXTT16=
EXTT17=
EXTT18=
EXTT19=
PLAYORDER=
